<?xml version="1.0" encoding="UTF-8"?>
<svg version="1.1" xmlns="http://www.w3.org/2000/svg" width="1024" height="595">
<path d="M0 0 C-0.55355711 4.68071076 -1.8607546 8.09727746 -4.0625 12.25 C-6.91986 17.74997061 -9.52163587 23.31951235 -12 29 C-14.31301462 34.27980316 -16.69363864 39.48728154 -19.3125 44.625 C-22.49428208 50.88709503 -25.45278392 57.23789208 -28.375 63.625 C-29.07749878 65.1577356 -29.07749878 65.1577356 -29.79418945 66.72143555 C-32.10507315 71.78244208 -34.38281036 76.85491987 -36.6015625 81.95703125 C-37.00713379 82.88241699 -37.41270508 83.80780273 -37.83056641 84.76123047 C-38.59476738 86.51011795 -39.35005644 88.26293402 -40.09521484 90.02001953 C-40.43504395 90.79587402 -40.77487305 91.57172852 -41.125 92.37109375 C-41.41632812 93.05099365 -41.70765625 93.73089355 -42.0078125 94.43139648 C-43 96 -43 96 -46 97 C-47.692402 95.8367361 -49.37823863 94.66169269 -51.01464844 93.42089844 C-74.43829693 76.65680176 -107.94716023 71.26988093 -135.75 67.1875 C-136.46529877 67.08217957 -137.18059753 66.97685913 -137.91757202 66.86834717 C-176.96560312 61.1907386 -227.12604466 59.30584841 -261.07421875 83.16015625 C-265.67345646 86.52872296 -265.67345646 86.52872296 -269 91 C-269.66 91 -270.32 91 -271 91 C-271.27714844 91.72058594 -271.55429687 92.44117188 -271.83984375 93.18359375 C-273.31643249 96.76817449 -275.09345158 100.15919904 -276.87890625 103.59765625 C-279.42444563 109.0523835 -280.05772966 114.64872389 -278.234375 120.42578125 C-270.1756117 138.67150239 -247.07159467 147.77974158 -229.63525391 154.64355469 C-199.02465323 166.06548198 -167.07632195 173.89381348 -135.45629883 181.94555664 C-95.68760046 192.10444074 -52.29424923 208.35707234 -29.75 245.125 C-28.82055998 246.74272804 -27.90285769 248.3672873 -27 250 C-26.63132812 250.65484375 -26.26265625 251.3096875 -25.8828125 251.984375 C-13.81017249 274.63227331 -14.59553371 301.63338327 -21.89892578 325.625 C-30.67961305 352.83509209 -46.40365458 375.59640562 -65 397 C-65.43973145 397.50966309 -65.87946289 398.01932617 -66.33251953 398.54443359 C-71.76462888 404.82358372 -71.76462888 404.82358372 -74 407 C-74.66 407 -75.32 407 -76 407 C-76.33 407.99 -76.66 408.98 -77 410 C-78.390625 411.4375 -78.390625 411.4375 -80.25 413 C-80.97703125 413.61488281 -81.7040625 414.22976563 -82.453125 414.86328125 C-83.29359375 415.56839844 -84.1340625 416.27351563 -85 417 C-85.94359375 417.81855469 -86.8871875 418.63710938 -87.859375 419.48046875 C-118.32828471 445.84556089 -154.02412643 466.70328151 -191.28369141 481.88916016 C-194.06536753 483.02673218 -196.83525568 484.19029226 -199.60546875 485.35546875 C-253.85948225 507.90593724 -311.29757057 520.94456997 -369 531 C-370.14404297 531.20077148 -371.28808594 531.40154297 -372.46679688 531.60839844 C-409.68346569 538.0681655 -447.37408556 541.91522972 -485 545 C-486.19226196 545.10030518 -487.38452393 545.20061035 -488.61291504 545.30395508 C-569.73891185 552.0783069 -653.46752929 552.24720923 -760 545 C-761.34744769 544.88517359 -762.69490057 544.77040811 -764.0423584 544.65570068 C-934.63715255 530.05828813 -934.63715255 530.05828813 -985 492 C-985.33 491.34 -985.66 490.68 -986 490 C-985.37657715 489.74420166 -984.7531543 489.48840332 -984.11083984 489.22485352 C-971.67446456 484.08141436 -959.92392756 478.92841673 -949 471 C-948.18917969 470.41734375 -947.37835937 469.8346875 -946.54296875 469.234375 C-944.29982196 467.55299702 -942.14442012 465.80542653 -940 464 C-939.14019531 463.28585937 -938.28039062 462.57171875 -937.39453125 461.8359375 C-922.52933189 448.96254905 -912.21285823 432.19733536 -903 415 C-899.54128487 416.15290504 -899.07424657 416.93448289 -897 419.8125 C-894.03908223 423.74369738 -890.89275105 427.44238847 -887.5625 431.0625 C-887.09126709 431.57780273 -886.62003418 432.09310547 -886.13452148 432.62402344 C-883.39569507 435.58813356 -880.54460903 438.34744551 -877.5625 441.0625 C-874.50745215 444.02497064 -873.27145094 446.51147017 -872 450.5625 C-869.84308509 457.36290422 -865.95671046 460.89927228 -859.7265625 464.20703125 C-856.41153936 465.71745988 -853.0201965 466.99235934 -849.61328125 468.28125 C-845.76434037 469.94192126 -842.82669708 472.44987606 -839.75 475.25 C-834.15747315 480.15239891 -828.36438963 484.1414804 -822 488 C-820.31865714 489.0910842 -818.63746213 490.18241693 -816.96069336 491.28051758 C-794.38650946 506.00983845 -770.77473343 516.13895209 -745 524 C-744.14341797 524.26151855 -743.28683594 524.52303711 -742.40429688 524.79248047 C-710.75339239 534.23923966 -676.55839216 538.11278631 -643.609375 538.203125 C-642.03514073 538.21006019 -640.46090673 538.21705531 -638.88667297 538.22410583 C-633.84111268 538.24338653 -628.79559276 538.24803112 -623.75 538.25 C-622.45980013 538.25110464 -622.45980013 538.25110464 -621.14353561 538.2522316 C-592.85458784 538.27197094 -564.79054701 537.50346636 -536.58325195 535.20568848 C-532.36459823 534.86978301 -528.14317352 534.57388033 -523.921875 534.2734375 C-462.54467625 529.83603761 -400.95558071 522.09024995 -341 508 C-339.95767212 507.75537018 -339.95767212 507.75537018 -338.89428711 507.50579834 C-309.17949757 500.49471785 -279.70183788 492.00888069 -252 479 C-251.28650391 478.66935547 -250.57300781 478.33871094 -249.83789062 477.99804688 C-233.64565202 470.43565503 -217.26288384 461.2061826 -205 448 C-204.35804688 447.32839844 -203.71609375 446.65679687 -203.0546875 445.96484375 C-184.06839394 425.62238637 -169.41806055 399.67027346 -169.89306641 371.16992188 C-170.7080268 354.632552 -177.11628867 339.68534892 -189 328 C-198.6821737 320.14488604 -209.42447763 314.26074681 -221.3515625 310.58203125 C-222.04438828 310.36720596 -222.73721405 310.15238068 -223.45103455 309.93104553 C-231.07756295 307.60951751 -238.80327556 305.75414743 -246.5625 303.9375 C-293.55487285 292.84261342 -345.40549797 279.94679135 -385 251 C-385.55494141 250.59700684 -386.10988281 250.19401367 -386.68164062 249.77880859 C-412.42760106 230.90931885 -429.71371387 203.04936418 -435.3125 171.5 C-435.56417711 169.66962105 -435.79450211 167.836137 -436 166 C-436.10957031 165.0925 -436.21914063 164.185 -436.33203125 163.25 C-440.73345569 121.93529589 -424.90971543 81.58695163 -399.375 49.6875 C-389.77810279 37.9560085 -379.09682064 27.15435075 -367 18 C-366.41331543 17.55333984 -365.82663086 17.10667969 -365.22216797 16.64648438 C-318.06896275 -18.91995467 -257.24459564 -35.47842477 -199 -39 C-198.07687012 -39.06171387 -197.15374023 -39.12342773 -196.20263672 -39.18701172 C-130.2016462 -43.4778159 -58.25889431 -32.64872534 0 0 Z " fill="#007DC3" transform="translate(1024,46)"/>
<path d="M0 0 C7.77049489 5.90099776 10.19558904 10.87025663 11.9765625 20.54296875 C12.32888286 23.35146531 12.4771345 25.98833757 12.38671875 28.8125 C13.19109375 28.85375 13.99546875 28.895 14.82421875 28.9375 C20.78342828 30.4011655 25.76099956 33.64487442 29.44921875 38.5625 C30.38671875 40.8125 30.38671875 40.8125 30.38671875 42.8125 C26.19388757 42.16405914 22.12171954 41.30033354 18.01171875 40.25 C16.95210938 39.98058594 15.8925 39.71117187 14.80078125 39.43359375 C14.00414062 39.22863281 13.2075 39.02367187 12.38671875 38.8125 C12.47953125 40.606875 12.47953125 40.606875 12.57421875 42.4375 C12.73313068 45.50979732 12.38699555 46.81199431 10.875 49.57421875 C9.06895377 53.50390989 9.15376803 56.78747443 9.38671875 61 C9.77995475 68.22898851 9.77995475 68.22898851 8.0546875 70.7890625 C5.77255271 72.18934193 4.00938988 72.02514901 1.38671875 71.8125 C1.61359375 72.699375 1.84046875 73.58625 2.07421875 74.5 C2.44675867 78.44892316 1.61697244 79.63867744 -0.61328125 82.8125 C-0.94328125 83.8025 -1.27328125 84.7925 -1.61328125 85.8125 C-1.08605469 86.01617187 -0.55882812 86.21984375 -0.015625 86.4296875 C3.44507631 88.42170094 6.02650682 91.11193034 8.82421875 93.9375 C9.40606934 94.52499023 9.98791992 95.11248047 10.58740234 95.71777344 C16.48132887 101.7801932 20.10742217 107.25482244 22.5078125 115.375 C23.5111477 118.15758296 24.90674175 120.50253979 26.38671875 123.0625 C30.82583756 131.79824739 31.38354066 141.19834494 32.38671875 150.8125 C32.51675293 152.03066406 32.64678711 153.24882812 32.78076172 154.50390625 C33.57002248 161.93355528 34.32746062 169.36560594 35.04541016 176.80249023 C35.28095547 178.8797708 35.57898981 180.95058139 35.92724609 183.01196289 C36.38671875 185.8125 36.38671875 185.8125 36.38671875 188.8125 C36.95261719 189.08964844 37.51851563 189.36679688 38.1015625 189.65234375 C39.20177734 190.19568359 39.20177734 190.19568359 40.32421875 190.75 C41.05511719 191.10964844 41.78601563 191.46929687 42.5390625 191.83984375 C44.38671875 192.8125 44.38671875 192.8125 45.38671875 193.8125 C45.24211321 195.37955193 45.04547062 196.94192102 44.82421875 198.5 C44.32535103 202.88380011 44.78459863 205.66583616 46.38671875 209.8125 C46.82421875 212.875 46.82421875 212.875 46.38671875 215.8125 C43.94921875 218.5625 43.94921875 218.5625 41.38671875 220.8125 C40.07999832 223.42594085 40.61675529 224.41834538 41.26171875 227.25 C43.54022639 239.1540399 43.60677162 251.19457915 42.82421875 263.25 C42.09716529 275.18370501 43.58125725 284.07248143 48.94921875 294.90234375 C50.38671875 297.8125 50.38671875 297.8125 51.234375 300.36328125 C52.78154366 303.65167024 55.13464349 305.71403542 57.82421875 308.0625 C58.3555542 308.53848633 58.88688965 309.01447266 59.43432617 309.50488281 C63.81629174 313.39794335 68.36073672 317.08223224 72.92578125 320.7578125 C75.70116576 323.0750383 78.21455115 325.54938004 80.7265625 328.14453125 C83.09230093 330.52140257 85.62411876 332.68351215 88.1640625 334.87109375 C90.71648758 337.10054061 93.20559389 339.39251382 95.69921875 341.6875 C99.21560683 344.90083411 102.78380855 347.97327398 106.51171875 350.9375 C118.69325252 360.79124068 130.12219454 371.78513003 140.08984375 383.87890625 C151.44224772 397.43282781 165.60787128 404.1834624 181.82421875 410.25 C182.75983643 410.60457275 183.6954541 410.95914551 184.65942383 411.32446289 C189.80061935 413.18229876 193.85707447 414.09932111 199.38671875 413.8125 C207.05722432 414.54035819 212.3425481 416.01090085 217.63671875 421.8125 C219.87006474 424.55120165 221.2677817 426.45568884 222.38671875 429.8125 C223.04671875 429.8125 223.70671875 429.8125 224.38671875 429.8125 C225.796875 431.2109375 225.796875 431.2109375 227.44921875 433.1875 C231.06376515 437.44885997 234.79823937 441.5851141 238.56640625 445.7109375 C241.50421039 449.10265129 241.52544224 451.37768785 241.6171875 455.83984375 C241.38671875 457.8125 241.38671875 457.8125 239.38671875 460.8125 C239.17402344 461.91078125 238.96132813 463.0090625 238.7421875 464.140625 C236.88986178 469.15845261 234.08790898 470.75310423 229.69921875 473.5625 C228.14098046 474.60926929 226.58370573 475.65747425 225.02734375 476.70703125 C224.24423828 477.2273291 223.46113281 477.74762695 222.65429688 478.28369141 C219.34870483 480.51233238 216.1480679 482.8718367 212.94921875 485.25 C207.5370753 489.24407684 202.09558234 493.19504308 196.63671875 497.125 C190.2725651 501.70888938 183.94412295 506.33836378 177.63671875 511 C172.01124547 515.15345632 166.37922251 519.29630715 160.69921875 523.375 C159.66410156 524.11878906 158.62898437 524.86257813 157.5625 525.62890625 C156.51449219 526.34949219 155.46648438 527.07007813 154.38671875 527.8125 C153.82057861 528.32143799 153.25443848 528.83037598 152.67114258 529.35473633 C150.55671578 531.06454889 149.00950082 532.05561149 146.38671875 532.8125 C141.75371668 532.06546325 137.7158459 530.28136532 133.44921875 528.375 C132.30130859 527.90900391 131.15339844 527.44300781 129.97070312 526.96289062 C123.81366245 524.35644652 123.81366245 524.35644652 121.38671875 522.8125 C120.68530273 520.75756836 120.68530273 520.75756836 120.38671875 518.8125 C119.70609375 518.19375 119.02546875 517.575 118.32421875 516.9375 C116.38671875 514.8125 116.38671875 514.8125 115.82421875 511.875 C116.91831223 505.91826882 121.82094136 503.45870002 126.51171875 500.1875 C127.35992188 499.61773437 128.208125 499.04796875 129.08203125 498.4609375 C132.71997779 495.85888083 134.75831138 493.44437384 136.74682617 489.43286133 C137.18705612 488.55217484 137.62728607 487.67148834 138.08085632 486.76411438 C138.54659561 485.81715195 139.0123349 484.87018951 139.4921875 483.89453125 C139.97625565 482.92215012 140.46032379 481.94976898 140.95906067 480.94792175 C142.50310233 477.84305249 144.03874437 474.73411359 145.57421875 471.625 C146.61989198 469.51860672 147.66610939 467.4124835 148.71289062 465.30664062 C151.27715498 460.14504353 153.83453621 454.98008074 156.38671875 449.8125 C155.57178955 449.04719971 154.75686035 448.28189941 153.91723633 447.4934082 C151.38671875 444.8125 151.38671875 444.8125 150.8984375 441.91796875 C150.95644531 440.95503906 151.01445313 439.99210937 151.07421875 439 C151.11933594 438.02417969 151.16445313 437.04835938 151.2109375 436.04296875 C151.26894531 435.30691406 151.32695313 434.57085937 151.38671875 433.8125 C150.64164063 433.54824219 149.8965625 433.28398437 149.12890625 433.01171875 C146.4021725 431.81925826 144.70207751 430.61086468 142.51171875 428.625 C141.82335937 428.00238281 141.135 427.37976563 140.42578125 426.73828125 C137.94173651 424.39223899 135.53874916 421.97622603 133.14453125 419.5390625 C131.41008527 417.83545112 129.61433328 416.26105962 127.76171875 414.6875 C123.94727419 411.40737452 120.4210844 407.88725263 116.88671875 404.3125 C112.88285802 400.26314732 108.8409027 396.38032735 104.4921875 392.69921875 C101.04698803 389.61196208 97.82856855 386.29513667 94.59741211 382.98608398 C92.49536765 380.84788728 90.44663347 378.85654327 88.02734375 377.078125 C87.4859375 376.66046875 86.94453125 376.2428125 86.38671875 375.8125 C86.38671875 375.1525 86.38671875 374.4925 86.38671875 373.8125 C85.8453125 373.59980469 85.30390625 373.38710938 84.74609375 373.16796875 C81.53346551 371.32230319 79.18123521 368.77284708 76.63671875 366.125 C73.31410641 362.73015696 70.01551239 359.38477697 66.38671875 356.3125 C62.29718255 352.83639423 58.57711335 349.03000344 54.80859375 345.21484375 C51.50483053 341.88605202 48.10955418 338.75838693 44.515625 335.7421875 C42.74243414 334.13492827 41.1143603 332.49826879 39.4765625 330.7578125 C38.95642578 330.21189453 38.43628906 329.66597656 37.90039062 329.10351562 C36.87386586 328.01847767 35.86002722 326.92124961 34.86132812 325.81054688 C31.17857313 321.93893265 28.5885357 321.32967486 23.38671875 320.8125 C21.01171875 319.56640625 21.01171875 319.56640625 19.38671875 317.8125 C18.65032982 315.2309547 18.38703786 312.75271641 18.07421875 310.08984375 C17.63148946 307.68397375 17.63148946 307.68397375 15.61328125 306.7890625 C14.87851562 306.46679688 14.14375 306.14453125 13.38671875 305.8125 C11.80096414 304.33769409 10.26133677 302.81231108 8.76171875 301.25 C5.87601194 298.12207946 5.87601194 298.12207946 2.38671875 295.8125 C2.56734863 296.32820557 2.74797852 296.84391113 2.93408203 297.37524414 C21.51317753 350.79454495 21.51317753 350.79454495 16.86907959 367.69641113 C16.32888816 370.06619944 16.36035862 372.02244414 16.50097656 374.44726562 C16.55143127 375.36342651 16.60188599 376.2795874 16.65386963 377.22351074 C16.74592682 378.70615417 16.74592682 378.70615417 16.83984375 380.21875 C16.93117584 381.77051941 16.93117584 381.77051941 17.02435303 383.3536377 C17.15582326 385.55284375 17.29053529 387.75185802 17.42822266 389.95068359 C17.63246525 393.24391611 17.8208588 396.53777818 18.0078125 399.83203125 C19.3789928 424.07260664 19.3789928 424.07260664 24.93359375 447.62109375 C25.50003873 450.36053886 25.26262717 452.16254358 24.38671875 454.8125 C21.32421875 456.625 21.32421875 456.625 18.38671875 457.8125 C23.81395586 465.85285127 32.97974312 470.05063855 41.38671875 474.4375 C45.46147343 476.67786327 47.90790084 478.84639134 50.38671875 482.8125 C50.38671875 485.69981841 49.97263463 487.05159582 48.22265625 489.32421875 C45.67923049 491.38601708 43.14572327 492.02670235 40.01171875 492.9375 C38.89023437 493.27007812 37.76875 493.60265625 36.61328125 493.9453125 C23.69338785 497.41772937 13.0367139 495.59573175 0.61132812 491.53125 C-3.1102735 490.32883613 -6.8610111 489.22721638 -10.61328125 488.125 C-11.32250732 487.91504395 -12.0317334 487.70508789 -12.76245117 487.48876953 C-17.68075981 486.04600366 -22.58872983 484.81741028 -27.61328125 483.8125 C-29.65610441 475.44057296 -29.65610441 475.44057296 -29.42578125 472.0625 C-29.37626542 469.51085405 -29.37626542 469.51085405 -32.1015625 467.62890625 C-35.31599934 464.02453773 -35.1727976 462.25372377 -34.98828125 457.5 C-34.93800781 455.61861328 -34.93800781 455.61861328 -34.88671875 453.69921875 C-34.70825749 451.16251941 -34.45357012 448.62971744 -34.11328125 446.10961914 C-33.56510228 441.7922048 -33.40147573 437.52064844 -33.33984375 433.171875 C-33.32091568 431.93562881 -33.32091568 431.93562881 -33.30160522 430.67440796 C-33.08520843 412.97660928 -33.48257558 395.40817755 -35.31610107 377.79406738 C-35.5118754 375.91223747 -35.69739806 374.02930849 -35.87188721 372.14538574 C-37.03533374 359.92851288 -39.26012479 351.85342392 -46.61328125 341.8125 C-47.55313441 340.29117048 -48.47505755 338.75847962 -49.37109375 337.2109375 C-49.76941406 336.53546875 -50.16773438 335.86 -50.578125 335.1640625 C-50.96097656 334.51179688 -51.34382813 333.85953125 -51.73828125 333.1875 C-52.12886719 332.5275 -52.51945312 331.8675 -52.921875 331.1875 C-55.19794879 327.31743317 -57.37149679 323.40883027 -59.48828125 319.44921875 C-62.53166579 313.84364786 -65.92603769 308.53752158 -69.48828125 303.25 C-70.10251953 302.33395996 -70.71675781 301.41791992 -71.34960938 300.47412109 C-75.5025662 294.33129716 -79.77255771 288.43544819 -84.61328125 282.8125 C-85.42345703 281.8225 -85.42345703 281.8225 -86.25 280.8125 C-87.66380496 279.10311365 -89.12073252 277.45299817 -90.61328125 275.8125 C-91.31453125 275.008125 -92.01578125 274.20375 -92.73828125 273.375 C-97.55822033 270.75546789 -102.27525927 270.94209642 -107.61328125 271.8125 C-115.30430908 274.84624903 -119.42777781 281.00002953 -123.61328125 287.8125 C-124.15339844 288.61558594 -124.69351563 289.41867187 -125.25 290.24609375 C-135.27973787 305.98039115 -141.09946901 324.71361361 -145.78564453 342.65380859 C-146.57530937 345.66757959 -147.38230791 348.67634964 -148.1943512 351.68415833 C-152.95496405 369.32267465 -157.55624915 386.99683731 -161.61328125 404.8125 C-161.8462793 405.80024414 -162.07927734 406.78798828 -162.31933594 407.80566406 C-163.98667235 415.15119504 -165.22811636 422.50459405 -166.33203125 429.953125 C-166.55084457 431.42661407 -166.55084457 431.42661407 -166.77407837 432.92987061 C-167.37805256 437.02028176 -167.97771588 441.11117703 -168.56103516 445.20458984 C-168.99385791 448.22678063 -169.44288995 451.24619759 -169.89453125 454.265625 C-170.02275269 455.19570374 -170.15097412 456.12578247 -170.28308105 457.08404541 C-170.41331665 457.9396405 -170.54355225 458.7952356 -170.67773438 459.67675781 C-170.84070007 460.80588593 -170.84070007 460.80588593 -171.00695801 461.95782471 C-171.61328125 463.8125 -171.61328125 463.8125 -174.61328125 465.8125 C-175.93328125 465.8125 -177.25328125 465.8125 -178.61328125 465.8125 C-179.56221434 473.0973863 -179.50346742 479.76877455 -178.57421875 487.0625 C-178.61328125 489.8125 -178.61328125 489.8125 -179.81640625 491.5546875 C-181.81251688 492.95196494 -183.75187058 493.96813428 -185.98828125 494.9375 C-186.73851562 495.27007812 -187.48875 495.60265625 -188.26171875 495.9453125 C-197.94261698 499.51534474 -210.23953042 499.25052267 -219.59765625 494.98046875 C-225.33145579 491.65797638 -225.33145579 491.65797638 -226.61328125 487.8125 C-227.37381779 480.10475466 -225.7412769 473.18448493 -223.61328125 465.8125 C-226.58328125 465.1525 -229.55328125 464.4925 -232.61328125 463.8125 C-232.07685493 457.00169396 -230.65593788 451.07005318 -228.48046875 444.609375 C-228.16554474 443.65089661 -227.85062073 442.69241821 -227.52615356 441.70489502 C-226.52176279 438.65463761 -225.50525611 435.60858184 -224.48828125 432.5625 C-223.82862479 430.56536899 -223.16976453 428.5679748 -222.51171875 426.5703125 C-219.93310617 418.75633013 -217.34194276 410.94691068 -214.69360352 403.15625 C-211.34448828 393.27766052 -208.25395097 383.45781208 -205.80078125 373.3125 C-205.51525391 372.18070312 -205.22972656 371.04890625 -204.93554688 369.8828125 C-202.43082713 359.72445956 -200.51596439 349.6010212 -200.30078125 339.125 C-198.44580316 298.20191195 -182.37204506 251.32835038 -164.30078125 215 C-161.39665859 208.98951772 -160.11108846 202.81409108 -158.65380859 196.34155273 C-156.94603833 189.20730516 -154.15506414 183.43251444 -150.3828125 177.171875 C-148.37014804 173.3509226 -147.5091837 170.02094432 -146.61328125 165.8125 C-147.22848633 165.70180176 -147.84369141 165.59110352 -148.47753906 165.47705078 C-151.27397533 164.97019012 -154.06860044 164.45394822 -156.86328125 163.9375 C-157.83136719 163.76347656 -158.79945313 163.58945313 -159.796875 163.41015625 C-160.73144531 163.23613281 -161.66601562 163.06210938 -162.62890625 162.8828125 C-163.48774414 162.72570801 -164.34658203 162.56860352 -165.23144531 162.40673828 C-167.59263923 161.81764993 -169.45969867 160.92073896 -171.61328125 159.8125 C-174.84078473 159.92008345 -175.8669736 161.04259306 -178.30078125 163.25 C-182.00807853 166.44498233 -185.73945012 167.61851667 -190.61328125 167.8125 C-197.10229252 166.82625995 -203.98253704 163.46387114 -208.61328125 158.8125 C-209.66256235 155.91523128 -209.66741563 153.95229385 -209.61328125 150.8125 C-210.66128906 150.75191406 -211.70929688 150.69132813 -212.7890625 150.62890625 C-214.16798173 150.54448262 -215.5468873 150.45983553 -216.92578125 150.375 C-217.61607422 150.33568359 -218.30636719 150.29636719 -219.01757812 150.25585938 C-226.64920264 149.77657861 -226.64920264 149.77657861 -229.61328125 146.8125 C-239.99473069 151.18363661 -244.85380997 157.97552664 -249.265625 168.2109375 C-253.95727446 180.7492007 -255.63600973 193.5295528 -256.61328125 206.8125 C-256.69532806 207.91642593 -256.77737488 209.02035187 -256.86190796 210.1577301 C-257.64855969 221.9490787 -257.78991361 233.71334684 -257.84307671 245.52839661 C-257.85981677 249.12619581 -257.88306508 252.72390382 -257.90797424 256.32165527 C-257.97781411 266.54039754 -258.03820811 276.75917832 -258.09008789 286.97802734 C-258.46882172 359.60106228 -258.46882172 359.60106228 -262.80078125 387.25 C-262.90521545 387.93699982 -263.00964966 388.62399963 -263.11724854 389.33181763 C-265.2283751 403.11453661 -268.39749681 416.51355357 -272.61328125 429.8125 C-273.02682861 431.11960937 -273.02682861 431.11960937 -273.44873047 432.453125 C-280.4017275 453.86486482 -291.15712505 472.42293472 -306.61328125 488.8125 C-307.22558594 489.48925781 -307.83789062 490.16601562 -308.46875 490.86328125 C-321.94663944 505.20329581 -340.18087344 514.62338049 -358.61328125 520.8125 C-359.83144531 521.22757813 -361.04960937 521.64265625 -362.3046875 522.0703125 C-367.61929462 523.79952483 -371.98195469 525.02973218 -377.61328125 524.8125 C-379.07891539 520.23239331 -379.72337822 516.67052884 -379.61328125 511.8125 C-378.453125 511.50957031 -377.29296875 511.20664062 -376.09765625 510.89453125 C-357.2005902 505.87100371 -339.66709397 498.70770468 -324.84765625 485.66015625 C-322.61328125 483.8125 -322.61328125 483.8125 -320.44140625 482.80859375 C-318.07437783 481.51886672 -317.74006545 480.22514381 -316.61328125 477.8125 C-315.33111972 476.40916716 -314.01383191 475.03764876 -312.67578125 473.6875 C-287.88619948 446.61887604 -279.63379612 407.13882169 -275.61328125 371.8125 C-275.51418457 370.94850586 -275.41508789 370.08451172 -275.31298828 369.19433594 C-275.02728272 366.65141191 -274.75392824 364.10759379 -274.48828125 361.5625 C-274.41262939 360.84433105 -274.33697754 360.12616211 -274.2590332 359.38623047 C-272.73335826 343.75021716 -272.44856903 328.09365043 -272.35292053 312.39543915 C-272.33147166 308.89299894 -272.30449207 305.39063626 -272.27624512 301.88824463 C-272.21717234 294.44636126 -272.16475295 287.0044393 -272.11328125 279.5625 C-272.05350105 270.93721143 -271.99081794 262.31196152 -271.92140198 253.68674469 C-271.89534671 250.27854241 -271.87422627 246.87033472 -271.85339355 243.46209717 C-271.7792877 233.1925987 -271.60465096 222.94017281 -271.14550781 212.67993164 C-271.10564003 211.78875767 -271.06577225 210.89758369 -271.02469635 209.97940445 C-270.68584727 203.08174584 -269.98920201 196.31829173 -268.86328125 189.5 C-268.68772705 188.41243408 -268.51217285 187.32486816 -268.33129883 186.2043457 C-265.47336401 169.30813498 -261.11846481 152.31768356 -248.61328125 139.8125 C-247.95328125 139.8125 -247.29328125 139.8125 -246.61328125 139.8125 C-246.61328125 139.1525 -246.61328125 138.4925 -246.61328125 137.8125 C-245.84866577 137.41140015 -245.84866577 137.41140015 -245.06860352 137.00219727 C-242.76998909 135.7950377 -240.4728712 134.58505777 -238.17578125 133.375 C-237.37333984 132.95412109 -236.57089844 132.53324219 -235.74414062 132.09960938 C-234.59848633 131.49536133 -234.59848633 131.49536133 -233.4296875 130.87890625 C-232.72271729 130.50709229 -232.01574707 130.13527832 -231.28735352 129.75219727 C-229.63399379 128.92337599 -229.63399379 128.92337599 -228.61328125 127.8125 C-221.55434177 127.4600713 -214.59139522 127.71789389 -207.61328125 128.8125 C-206.01058689 121.29641609 -207.6114492 115.16968162 -209.48828125 107.8125 C-212.9314519 93.94548395 -212.9314519 93.94548395 -213.61328125 86.8125 C-214.39703125 86.585625 -215.18078125 86.35875 -215.98828125 86.125 C-218.61328125 84.8125 -218.61328125 84.8125 -219.734375 82.875 C-222.05858278 74.77642711 -223.00701852 63.17850388 -218.8828125 55.65625 C-215.27666026 52.23009503 -212.86942145 50.85437134 -207.86328125 50.6875 C-207.21488281 50.76484375 -206.56648437 50.8421875 -205.8984375 50.921875 C-202.5969735 50.76385621 -200.24810309 49.39898191 -197.30078125 47.9375 C-183.80086223 41.38880075 -169.87916877 41.87708275 -155.61328125 45.8125 C-147.51155435 47.09795779 -139.28209046 46.99869815 -131.1015625 46.99780273 C-128.88131316 46.9999823 -126.66156779 47.01818196 -124.44140625 47.03710938 C-115.43663509 47.07326759 -106.42404702 46.89349578 -97.61328125 44.8125 C-96.95328125 44.1525 -96.29328125 43.4925 -95.61328125 42.8125 C-84.26580036 40.00666774 -71.03363461 48.23189749 -61.61328125 53.8125 C-60.37013301 51.32620352 -60.45850275 49.14381076 -60.37426758 46.4050293 C-59.87583733 31.36435833 -57.23148053 13.74827865 -45.92578125 2.8125 C-33.65899799 -6.54778797 -13.29906352 -8.1957139 0 0 Z M-169.61328125 92.8125 C-169.96390625 93.740625 -170.31453125 94.66875 -170.67578125 95.625 C-172.61328125 98.8125 -172.61328125 98.8125 -176.0859375 100.0390625 C-179.90733659 101.49256544 -179.90733659 101.49256544 -181.13671875 105.25390625 C-181.45338497 106.62041335 -181.73596862 107.99516034 -181.98828125 109.375 C-182.13982666 110.09010742 -182.29137207 110.80521484 -182.44750977 111.54199219 C-182.87427606 113.62715116 -183.25240188 115.71505044 -183.61328125 117.8125 C-183.80019531 118.84761719 -183.98710937 119.88273437 -184.1796875 120.94921875 C-184.91196508 125.52512252 -184.91196508 125.52512252 -183.63818359 129.86376953 C-180.5592196 132.82691042 -177.07635484 132.70622797 -173 133.0078125 C-172.15282913 133.08619354 -171.30565826 133.16457458 -170.43281555 133.24533081 C-167.72335385 133.49340327 -165.01259404 133.71674589 -162.30078125 133.9375 C-159.60021427 134.16923182 -156.90029381 134.40626796 -154.20088196 134.65109253 C-152.52209024 134.80211248 -150.84254402 134.945032 -149.16227722 135.0786438 C-144.70125111 135.4665946 -140.82995056 136.18261219 -136.61328125 137.8125 C-135.30219574 133.45577311 -134.00245387 129.09588406 -132.71313477 124.73266602 C-132.27288449 123.24866719 -131.82954181 121.76558215 -131.38305664 120.28344727 C-130.74201364 118.15353019 -130.11214401 116.02058031 -129.484375 113.88671875 C-129.2823497 113.22411545 -129.0803244 112.56151215 -128.87217712 111.87882996 C-127.92322778 108.61278908 -127.51065599 107.12037577 -128.61328125 103.8125 C-129.25910156 103.91691406 -129.90492188 104.02132812 -130.5703125 104.12890625 C-139.19532009 104.87223796 -145.15142703 102.14205757 -152.58520508 98.18969727 C-158.17520854 95.26305864 -163.37102917 93.73612363 -169.61328125 92.8125 Z M-170.61328125 152.8125 C-170.61328125 153.4725 -170.61328125 154.1325 -170.61328125 154.8125 C-161.61532143 157.89153609 -153.0475462 159.73753128 -143.61328125 160.8125 C-143.28328125 159.8225 -142.95328125 158.8325 -142.61328125 157.8125 C-147.30893455 155.59484033 -152.09030902 154.94664132 -157.17578125 154.1875 C-158.02591797 154.0534375 -158.87605469 153.919375 -159.75195312 153.78125 C-163.45637928 153.21178527 -166.84749776 152.8125 -170.61328125 152.8125 Z M-13.61328125 175.8125 C-28.23218935 196.37361499 -28.23218935 196.37361499 -33.61328125 220.5 C-30.72055279 230.08216303 -25.18925943 235.50891261 -17.61328125 241.8125 C-16.31811169 242.93346547 -15.02620355 244.05821531 -13.73828125 245.1875 C-13.09761719 245.744375 -12.45695312 246.30125 -11.796875 246.875 C-9.61710372 248.80910833 -7.47600168 250.7816985 -5.33886719 252.76269531 C-0.14163318 257.57714891 5.17367103 262.15301617 10.6953125 266.59765625 C15.05831302 270.18810806 19.22420198 273.99309741 23.38671875 277.8125 C23.71671875 277.1525 24.04671875 276.4925 24.38671875 275.8125 C23.56417209 273.54590792 23.56417209 273.54590792 22.25390625 271.0078125 C21.5422229 269.55193726 21.5422229 269.55193726 20.81616211 268.06665039 C20.3031958 267.03403076 19.79022949 266.00141113 19.26171875 264.9375 C18.23756667 262.83561685 17.215408 260.73276115 16.1953125 258.62890625 C15.70530762 257.61973145 15.21530273 256.61055664 14.71044922 255.57080078 C8.7038744 243.05470298 8.7038744 243.05470298 7.57421875 236.375 C6.24360816 232.38316823 5.92861877 232.26576656 2.44921875 230.4375 C-0.21928858 229.01172713 -1.38408985 228.29396682 -2.69921875 225.53125 C-3.18408705 223.80032231 -3.62694486 222.05708263 -4.02734375 220.3046875 C-4.56561048 218.01525967 -5.28040567 216.16877987 -6.30078125 214.0625 C-7.69225125 210.61695523 -8.10274389 208.48346978 -7.61328125 204.8125 C-7.11828125 204.19375 -6.62328125 203.575 -6.11328125 202.9375 C-3.45013932 199.1647156 -4.3325012 194.86115447 -4.9296875 190.50390625 C-5.86855004 185.48818112 -7.35838633 181.85646035 -10.61328125 177.8125 C-11.60328125 177.1525 -12.59328125 176.4925 -13.61328125 175.8125 Z M-3.61328125 202.8125 C-1.6569415 205.22371859 -1.6569415 205.22371859 2.01171875 204.9375 C3.12546875 204.89625 4.23921875 204.855 5.38671875 204.8125 C5.38671875 204.4825 5.38671875 204.1525 5.38671875 203.8125 C2.41671875 203.4825 -0.55328125 203.1525 -3.61328125 202.8125 Z M52.38671875 335.8125 C53.37671875 337.2975 53.37671875 337.2975 54.38671875 338.8125 C55.04671875 338.4825 55.70671875 338.1525 56.38671875 337.8125 C55.06671875 337.1525 53.74671875 336.4925 52.38671875 335.8125 Z M62.38671875 344.8125 C66.53685405 349.94556209 71.0255656 354.29832313 75.98046875 358.65625 C78.03662719 360.49878159 79.97366279 362.38692224 81.88671875 364.375 C84.04344889 367.04520005 84.04344889 367.04520005 86.38671875 366.8125 C86.38671875 367.4725 86.38671875 368.1325 86.38671875 368.8125 C87.93750945 370.38114082 87.93750945 370.38114082 89.94921875 372 C92.71210555 374.34529758 95.35351632 376.72079405 97.88671875 379.3125 C100.29737354 381.76698488 102.78024266 384.0669206 105.38671875 386.3125 C107.99319484 388.5580794 110.47606396 390.85801512 112.88671875 393.3125 C115.89556052 396.37592393 119.0702535 399.17447425 122.328125 401.96875 C125.27362466 404.60684457 127.99633307 407.4464975 130.72265625 410.30859375 C132.26019559 412.03600093 132.26019559 412.03600093 134.38671875 411.8125 C134.38671875 412.4725 134.38671875 413.1325 134.38671875 413.8125 C138.30169615 417.95712691 143.04227088 421.43697058 147.57421875 424.875 C148.37214844 425.48472656 149.17007813 426.09445312 149.9921875 426.72265625 C152.37288223 428.11128508 152.37288223 428.11128508 155 427.12109375 C157.53617861 425.77523985 157.53617861 425.77523985 160.38671875 423.8125 C159.64808594 423.55597656 158.90945313 423.29945313 158.1484375 423.03515625 C145.65831204 418.32160191 136.94537261 409.50873107 127.3515625 400.56640625 C121.9946509 394.70623071 121.9946509 394.70623071 115.38671875 391.8125 C115.38671875 391.1525 115.38671875 390.4925 115.38671875 389.8125 C113.89562641 388.48268907 112.33965161 387.2255127 110.76171875 386 C106.05332721 382.23936211 101.59162099 378.31181302 97.19921875 374.1875 C92.96170934 370.21206355 88.7076557 366.28185583 84.30859375 362.484375 C81.97566801 360.45491927 79.6816063 358.384853 77.38671875 356.3125 C76.55140625 355.56097656 75.71609375 354.80945313 74.85546875 354.03515625 C73.24818395 352.5880913 71.64385607 351.13773307 70.04296875 349.68359375 C69.33140625 349.04550781 68.61984375 348.40742188 67.88671875 347.75 C67.25765625 347.18152344 66.62859375 346.61304688 65.98046875 346.02734375 C64.45561412 344.61042687 64.45561412 344.61042687 62.38671875 344.8125 Z M172.38671875 503.8125 C172.05671875 504.4725 171.72671875 505.1325 171.38671875 505.8125 C172.37671875 505.4825 173.36671875 505.1525 174.38671875 504.8125 C173.72671875 504.4825 173.06671875 504.1525 172.38671875 503.8125 Z M169.38671875 505.8125 C169.05671875 506.4725 168.72671875 507.1325 168.38671875 507.8125 C169.37671875 507.4825 170.36671875 507.1525 171.38671875 506.8125 C170.72671875 506.4825 170.06671875 506.1525 169.38671875 505.8125 Z M162.76171875 510.18359375 C162.0553125 510.67537109 161.34890625 511.16714844 160.62109375 511.67382812 C159.88375 512.19396484 159.14640625 512.71410156 158.38671875 513.25 C156.9291166 514.27057633 155.47081527 515.29015503 154.01171875 516.30859375 C153.36460937 516.76419678 152.7175 517.2197998 152.05078125 517.68920898 C150.38671875 518.8125 150.38671875 518.8125 148.38671875 519.8125 C148.71671875 520.8025 149.04671875 521.7925 149.38671875 522.8125 C152.37078583 520.69431543 155.34809735 518.56683063 158.32421875 516.4375 C159.59942383 515.53257812 159.59942383 515.53257812 160.90039062 514.609375 C161.70927734 514.02929688 162.51816406 513.44921875 163.3515625 512.8515625 C164.10042725 512.31740723 164.84929199 511.78325195 165.62084961 511.23291016 C167.50819567 509.91674874 167.50819567 509.91674874 168.38671875 507.8125 C165.78500294 507.8125 164.88119219 508.6950542 162.76171875 510.18359375 Z " fill="#00336E" transform="translate(389.61328125,4.1875)"/>
<path d="M0 0 C60.82297689 1.58859435 120.17458078 10.75575981 178 30 C179.03092773 30.33966797 180.06185547 30.67933594 181.12402344 31.02929688 C207.5720682 39.83711085 234.02752715 51.21714911 255 70 C255.73863281 70.65613281 256.47726562 71.31226563 257.23828125 71.98828125 C268.63642671 82.69953282 274.7945585 97.77425512 275.3125 113.3125 C274.79748356 133.6556495 263.51624534 149.31578836 249.36328125 162.94921875 C239.42592669 172.18242064 227.77804459 179.37373514 216 186 C215.03852051 186.54454834 215.03852051 186.54454834 214.05761719 187.10009766 C196.36118328 197.0351684 177.66339343 204.80499275 158.41992188 211.18652344 C156.07643892 211.97430443 153.74887576 212.79775962 151.421875 213.6328125 C139.47242499 217.85593113 127.30397179 221.18542327 115.0625 224.4375 C114.21463928 224.66490875 113.36677856 224.8923175 112.4932251 225.12661743 C110.05104474 225.77923186 107.60623811 226.42077716 105.16015625 227.05859375 C104.4265538 227.25510529 103.69295135 227.45161682 102.93711853 227.65408325 C98.86601259 228.69859645 95.20102135 229.2047169 91 229 C94.81822519 224.52934021 98.22750462 222.96663006 103.8125 221.6875 C111.4585789 219.74574041 118.95106529 217.48809574 126.4375 215 C127.41887939 214.67990967 128.40025879 214.35981934 129.41137695 214.0300293 C136.16129201 211.77588643 142.57694312 209.05721603 149 206 C149.66459229 205.6896582 150.32918457 205.37931641 151.01391602 205.05957031 C158.86240819 201.36845311 166.10777748 197.29402599 173 192 C173.89332031 191.33355469 174.78664063 190.66710937 175.70703125 189.98046875 C186.53108547 181.57858051 194.80445047 171.74024192 200 159 C200.33902344 158.17628906 200.67804688 157.35257813 201.02734375 156.50390625 C206.82295374 139.38415508 202.63732547 121.69328407 195.3125 105.875 C192.1581281 99.86275068 188.21501224 94.46561652 184.171875 89.03125 C182 86 182 86 180.890625 83.65625 C180.04772586 81.63492285 180.04772586 81.63492285 177 81 C175.5625 79.46875 175.5625 79.46875 174 77.5 C169.55843791 72.27627603 164.397171 68.19700115 159 64 C158.08347656 63.2678125 157.16695312 62.535625 156.22265625 61.78125 C147.95201778 55.33718601 139.12800405 50.12338116 130 45 C129.32340332 44.61312012 128.64680664 44.22624023 127.94970703 43.82763672 C102.06046132 29.0796419 72.42665621 19.96748155 43.125 15 C42.15046875 14.82831299 41.1759375 14.65662598 40.171875 14.47973633 C35.07966363 13.60389888 30.00684586 12.85990841 24.8671875 12.32421875 C23.88218262 12.21529297 22.89717773 12.10636719 21.88232422 11.99414062 C20.01421912 11.79539931 18.14318609 11.62190952 16.27001953 11.47851562 C10.25089277 10.82755315 7.33686694 9.17132186 3.375 4.56958008 C2.06548919 2.8752059 2.06548919 2.8752059 0 2 C0 1.34 0 0.68 0 0 Z " fill="#007DC3" transform="translate(466,310)"/>
<path d="M0 0 C-0.64800222 31.22192521 -13.2006124 68.99859097 -36 91 C-36.7425 91.763125 -37.485 92.52625 -38.25 93.3125 C-39.1575 94.199375 -40.065 95.08625 -41 96 C-41.60199219 96.598125 -42.20398437 97.19625 -42.82421875 97.8125 C-56.518648 110.77284709 -75.60952057 118.64173854 -94 122 C-94.62867668 120.62667716 -95.25273891 119.25124167 -95.875 117.875 C-96.39707031 116.72644531 -96.39707031 116.72644531 -96.9296875 115.5546875 C-101.75402036 104.03967402 -101.92891071 90.16139015 -97.875 78.3125 C-82.8309648 42.67746689 -45.90680686 21.87225716 -12.9375 5.3125 C-11.88393311 4.78293701 -10.83036621 4.25337402 -9.74487305 3.70776367 C-2.25727254 0 -2.25727254 0 0 0 Z " fill="#007DC3" transform="translate(100,382)"/>
<path d="M0 0 C-0.36998353 9.41355823 -0.36998353 9.41355823 -3.97265625 12.91992188 C-6.58605737 14.54553192 -9.22398257 15.9212998 -12 17.25 C-13.91463484 18.24640646 -15.82742309 19.24636983 -17.73828125 20.25 C-18.65174316 20.71792969 -19.56520508 21.18585938 -20.50634766 21.66796875 C-24.39406422 23.74466559 -27.84254869 26.232199 -31.35546875 28.890625 C-33 30 -33 30 -35 30 C-34.85919445 27.22882696 -34.71256882 24.45817359 -34.5625 21.6875 C-34.52318359 20.90181641 -34.48386719 20.11613281 -34.44335938 19.30664062 C-34.40146484 18.54931641 -34.35957031 17.79199219 -34.31640625 17.01171875 C-34.27974854 16.31522217 -34.24309082 15.61872559 -34.20532227 14.90112305 C-34 13 -34 13 -33 10 C-31.17749023 9.06445312 -31.17749023 9.06445312 -28.80859375 8.28125 C-27.94556641 7.98863281 -27.08253906 7.69601562 -26.19335938 7.39453125 C-25.28392578 7.09933594 -24.37449219 6.80414063 -23.4375 6.5 C-21.66509941 5.90704202 -19.89296058 5.31330103 -18.12109375 4.71875 C-17.25597168 4.43386719 -16.39084961 4.14898437 -15.49951172 3.85546875 C-13.18687639 3.06395926 -10.92888141 2.18937959 -8.66015625 1.28125 C-5.341468 0.11953202 -3.41739729 -0.12048869 0 0 Z " fill="#007DC3" transform="translate(176,354)"/>
</svg>
